<?xml version="1.0" encoding="utf-8"?>
<!-- Generator: Adobe Illustrator 22.1.0, SVG Export Plug-In . SVG Version: 6.00 Build 0)  -->
<svg version="1.1" id="Calque_1" xmlns="http://www.w3.org/2000/svg" xmlns:xlink="http://www.w3.org/1999/xlink" x="0px" y="0px"
	 viewBox="0 0 7.6 11.9" style="enable-background:new 0 0 7.6 11.9;" xml:space="preserve">
<style type="text/css">
	.st0{fill:#FFFFFF;}
</style>
<g>
	<g>
		<path class="st0" d="M0.6,2c0.6,0.6,1.2,1,1.8,1.6c0.9,0.8,1.8,1.7,2.8,2.5c0.2,0.2,0.5,0.4,0.6,0.6c0-0.5,0-0.9,0-1.3
			C5.2,5.8,4.5,6.4,4,6.8C3.1,7.7,2.1,8.5,1.2,9.3C1,9.5,0.7,9.7,0.6,9.9c-0.4,0.4-0.4,1,0,1.3c0.4,0.4,0.9,0.4,1.3,0
			c0.6-0.5,1.2-1,1.8-1.5C4.5,8.9,5.5,8,6.4,7.3C6.6,7.1,6.9,6.9,7,6.7c0.4-0.4,0.4-1,0-1.3C6.5,4.8,5.9,4.3,5.3,3.8
			C4.4,2.9,3.4,2.1,2.5,1.3C2.3,1.1,2.1,0.9,1.9,0.7c-0.4-0.4-1-0.4-1.3,0C0.2,1.1,0.2,1.7,0.6,2L0.6,2z"/>
	</g>
</g>
</svg>
