<?xml version="1.0" encoding="utf-8"?>
<!-- Generator: Adobe Illustrator 22.1.0, SVG Export Plug-In . SVG Version: 6.00 Build 0)  -->
<svg version="1.1" id="Calque_1" xmlns="http://www.w3.org/2000/svg" xmlns:xlink="http://www.w3.org/1999/xlink" x="0px" y="0px"
	 viewBox="0 0 7.6 11.9" style="enable-background:new 0 0 7.6 11.9;" xml:space="preserve">
<style type="text/css">
	.st0{fill:#FFFFFF;}
</style>
<g>
	<g>
		<path class="st0" d="M7.2,9.9c-0.7-0.6-1.2-1-1.9-1.6C4.4,7.5,3.4,6.7,2.5,5.8C2.3,5.6,2.1,5.4,1.8,5.3c0,0.5,0,0.9,0,1.3
			c0.7-0.5,1.2-1,1.8-1.5c0.9-0.8,1.9-1.7,2.8-2.4c0.2-0.2,0.5-0.4,0.7-0.6c0.4-0.4,0.4-1,0-1.3c-0.4-0.4-0.9-0.4-1.3,0
			C5.2,1.2,4.5,1.7,4,2.2C3.1,3,2.1,3.9,1.2,4.7C1,4.9,0.7,5.1,0.5,5.3c-0.4,0.4-0.4,1,0,1.3c0.6,0.6,1.2,1,1.8,1.6
			C3.2,9,4.2,9.8,5.1,10.7c0.2,0.2,0.5,0.4,0.7,0.6c0.4,0.4,1,0.4,1.3,0C7.4,10.9,7.5,10.3,7.2,9.9L7.2,9.9z"/>
	</g>
</g>
</svg>
